<?xml version="1.0" encoding="UTF-8" standalone="no"?>
<svg
   width="64"
   height="65"
   viewBox="0 0 48.000003 48.750004"
   version="1.1"
   id="svg56"
   sodipodi:docname="heart.svg"
   inkscape:export-filename="heart-filled.svg"
   inkscape:export-xdpi="94.523079"
   inkscape:export-ydpi="94.523079"
   xmlns:inkscape="http://www.inkscape.org/namespaces/inkscape"
   xmlns:sodipodi="http://sodipodi.sourceforge.net/DTD/sodipodi-0.dtd"
   xmlns="http://www.w3.org/2000/svg"
   xmlns:svg="http://www.w3.org/2000/svg">
  <defs
     id="defs60" />
  <sodipodi:namedview
     id="namedview58"
     pagecolor="#505050"
     bordercolor="#eeeeee"
     borderopacity="1"
     inkscape:showpageshadow="0"
     inkscape:pageopacity="0"
     inkscape:pagecheckerboard="0"
     inkscape:deskcolor="#505050"
     inkscape:document-units="pt"
     showgrid="false" />
  <g
     id="#fefefeff"
     class="UnoptimicedTransforms"
     transform="scale(0.6,0.609375)">
    <path
       fill="#fefefe"
       opacity="1"
       d="M 0,0 H 80 V 80 H 0 V 0 m 6.59,15.61 c -2.95,6.1 -1.86,13.26 0.46,19.38 4.8,12.42 14.08,22.34 23.35,31.6 3.23,3.28 6.29,6.85 10.38,9.11 C 50.8,65.37 61.86,55.72 69.21,43.17 72.5,37.3 75.6,30.89 75.44,24 75.56,18.9 73.47,13.74 69.7,10.29 64.05,5.12 55.18,3.97 48.32,7.27 44.77,8.92 42.39,12.13 40.03,15.11 38.27,12.85 36.57,10.46 34.24,8.73 25.51,2.1 11.25,5.72 6.59,15.61 Z"
       id="path48"
       style="fill:none" />
    <path
       fill="#fefefe"
       opacity="1"
       d="m 9.77,18.65 c 2.72,-8.09 13.08,-11.34 20.46,-7.77 4.65,2.87 6.98,8.08 9.85,12.51 3.1,-4.78 5.56,-10.86 11.26,-13.07 5.15,-1.58 11.42,-1 15.44,2.87 3.59,3.16 5.16,8.17 4.63,12.85 -0.64,5.8 -3.39,11.08 -6.37,16 C 58.4,52.83 49.21,61.7 40.07,70.35 30.95,61.33 21.43,52.44 14.66,41.42 10.61,34.69 7.74,26.53 9.77,18.65 Z"
       id="path50"
       style="fill:#808080" />
  </g>
  <g
     id="#010101ff"
     class="UnoptimicedTransforms"
     transform="scale(0.6,0.609375)">
    <path
       fill="#010101"
       opacity="1"
       d="M 6.59,15.61 C 11.25,5.72 25.51,2.1 34.24,8.73 c 2.33,1.73 4.03,4.12 5.79,6.38 2.36,-2.98 4.74,-6.19 8.29,-7.84 6.86,-3.3 15.73,-2.15 21.38,3.02 3.77,3.45 5.86,8.61 5.74,13.71 C 75.6,30.89 72.5,37.3 69.21,43.17 61.86,55.72 50.8,65.37 40.78,75.7 36.69,73.44 33.63,69.87 30.4,66.59 21.13,57.33 11.85,47.41 7.05,34.99 4.73,28.87 3.64,21.71 6.59,15.61 m 3.18,3.04 c -2.03,7.88 0.84,16.04 4.89,22.77 6.77,11.02 16.29,19.91 25.41,28.93 9.14,-8.65 18.33,-17.52 24.97,-28.31 2.98,-4.92 5.73,-10.2 6.37,-16 C 71.94,21.36 70.37,16.35 66.78,13.19 62.76,9.32 56.49,8.74 51.34,10.32 45.64,12.53 43.18,18.61 40.08,23.39 37.21,18.96 34.88,13.75 30.23,10.88 22.85,7.31 12.49,10.56 9.77,18.65 Z"
       id="path53"
       class="UnoptimicedTransforms" />
  </g>
</svg>
